# xmcd
#
# Track frame offsets: 
#        182
#        14862
#        27342
#        39332
#        54217
#        70667
#        90890
#        107880
#        121507
#        139125
#
# Disc length: 2036 seconds
#
# Revision: 4
# Processed by: cddbd v1.5PL3 Copyright (c) Steve Scherf et al.
# Submitted via: ExactAudioCopy v0.90b4
#
DISCID=7707f20a
DTITLE=Red Steagall - Love Of The West
DYEAR=1900
DGENRE=Country
TTITLE0=Red River Rose
TTITLE1=Quarter Circle Y
TTITLE2=Grandmother's Trunk
TTITLE3=The Day The Songbird Died
TTITLE4=Her Eyes Are Bluebonnet Blue
TTITLE5=Frenchie McCormick
TTITLE6=My Pardner
TTITLE7=Belle Of The Ball
TTITLE8=Visalia
TTITLE9=When The Roses Bloom Next Spring
EXTD=ID3G:   2
EXTT0=
EXTT1=
EXTT2=
EXTT3=
EXTT4=
EXTT5=
EXTT6=
EXTT7=
EXTT8=
EXTT9=
PLAYORDER=
